# xmcd CD database file
# Copyright (C) 1995-1998 Ti Kan
#
# Track frame offsets:
#	150
#	12521
#	24147
#	36149
#	50171
#	63091
#	74868
#	88520
#	107047
#	115767
#	124099
#	137893
#	150644
#	160618
#	172845
#	182822
#	190998
#	200750
#	212868
#	222310
#	233683
#	245150
#	257800
#	265583
#	276448
#	287065
#	297213
#	309268
#	320290
#
# Disc length: 4435 seconds
#
# Revision: 2
# Processed by: cddbd v1.4PL0 Copyright (c) Steve Scherf et al.
# Submitted via: Gronk 1.4
#
DISCID=b211511d
DTITLE=Johnny Cash - 29 songs
DYEAR=1900
DGENRE=country
TTITLE0=Jackson
TTITLE1=I Walk the Line
TTITLE2=Understand Your Man
TTITLE3=Orange Blossom Special
TTITLE4=The One on the Right is on the Left
TTITLE5=Ring of Fire
TTITLE6=It Ain't Me Babe
TTITLE7=Ballad of Ira Hayes
TTITLE8=Rebel Johnny Yuma
TTITLE9=Five Feet High and Rising
TTITLE10=Don't Take Your Guns to Town
TTITLE11=Folsom Prison Blues
TTITLE12=Hey Porter
TTITLE13=I Walk the Line 2
TTITLE14=Get Rhythm
TTITLE15=Guess Things Happen That Way
TTITLE16=Rock Island Line
TTITLE17=Home of the Blues
TTITLE18=Luther Played the Boogie
TTITLE19=Mean-Eyed Cat
TTITLE20=Big River
TTITLE21=Next in Line
TTITLE22=Come in Stranger
TTITLE23=Train of Love
TTITLE24=There You Go
TTITLE25=Ballad of a Teenage Queen
TTITLE26=So Doggone Lonesome
TTITLE27=The Ways of a Woman in Love
TTITLE28=Give My Love to Rose
EXTD=ID3G:   2
EXTT0=
EXTT1=
EXTT2=
EXTT3=
EXTT4=
EXTT5=
EXTT6=
EXTT7=
EXTT8=
EXTT9=
EXTT10=
EXTT11=
EXTT12=
EXTT13=
EXTT14=
EXTT15=
EXTT16=
EXTT17=
EXTT18=
EXTT19=
EXTT20=
EXTT21=
EXTT22=
EXTT23=
EXTT24=
EXTT25=
EXTT26=
EXTT27=
EXTT28=
PLAYORDER=
